<svg viewBox="0 0 64 64" xmlns="http://www.w3.org/2000/svg"><g id="Layer_50" data-name="Layer 50"><rect fill="#33d9b2" height="57.5" rx="12.75" width="57.5" x="3.25" y="3.25"/><g fill="#fff"><path d="m27.87 11.25h-15.73a.75.75 0 0 0 -.75.75v16.14a.75.75 0 0 0 .75.75h15.73a.76.76 0 0 0 .75-.75v-16.14a.76.76 0 0 0 -.75-.75zm-.75 16.14h-14.23v-14.64h14.23z"/><path d="m51.86 11.25h-15.73a.76.76 0 0 0 -.75.75v16.14a.76.76 0 0 0 .75.75h15.73a.75.75 0 0 0 .75-.75v-16.14a.75.75 0 0 0 -.75-.75zm-.75 16.14h-14.23v-14.64h14.23z"/><path d="m27.87 35.11h-15.73a.75.75 0 0 0 -.75.75v16.14a.75.75 0 0 0 .75.75h15.73a.76.76 0 0 0 .75-.75v-16.14a.76.76 0 0 0 -.75-.75zm-.75 16.14h-14.23v-14.64h14.23z"/><path d="m51.86 35.11h-15.73a.76.76 0 0 0 -.75.75v16.14a.76.76 0 0 0 .75.75h15.73a.75.75 0 0 0 .75-.75v-16.14a.75.75 0 0 0 -.75-.75zm-.75 16.14h-14.23v-14.64h14.23z"/></g></g></svg>